<svg width="126" height="43" viewBox="0 0 126 43" fill="none" xmlns="http://www.w3.org/2000/svg">
<path d="M14.9823 19.5885L21.0001 8.36289L4.57875 6.01075C4.12791 5.94654 3.69085 6.2056 3.49397 6.66687L0.11527 14.2524C-0.188246 14.9388 0.133907 15.7507 0.773816 15.9499L13.7085 20.1221C14.2276 20.2749 14.7263 20.0534 14.9823 19.5885ZM41.8885 14.2524L38.5095 6.66539C38.3126 6.20412 37.8692 5.94521 37.4181 6.00979L21.0001 8.36289L27.0205 19.5885C27.2667 20.0498 27.7673 20.272 28.2352 20.1244L41.2224 15.9537C41.8688 15.7433 42.1838 14.9314 41.8885 14.2524ZM27.9432 22.6292C26.8276 22.6292 25.7855 21.9687 25.2198 20.914L21.0001 13.0863L16.787 20.9096C16.216 21.9723 15.1792 22.6366 14.0635 22.6366C13.7682 22.6366 13.4729 22.5907 13.194 22.4991L4.2001 19.618V32.6149C4.2001 33.6976 4.85628 34.6334 5.7915 34.8903L19.9731 38.8624C20.6457 39.0459 21.3433 39.0459 22.0074 38.8624L36.2087 34.8903C37.0848 34.6888 37.8001 33.7515 37.8001 32.6813V19.618L28.8095 22.489C28.5338 22.5775 28.2385 22.6292 27.9432 22.6292Z" fill="url(#paint0_linear_103_21)"/>
<path d="M45.016 4.636V13H43.924V4.636H45.016ZM50.0811 6.304C50.8811 6.304 51.5291 6.548 52.0251 7.036C52.5211 7.516 52.7691 8.212 52.7691 9.124V13H51.6891V9.28C51.6891 8.624 51.5251 8.124 51.1971 7.78C50.8691 7.428 50.4211 7.252 49.8531 7.252C49.2771 7.252 48.8171 7.432 48.4731 7.792C48.1371 8.152 47.9691 8.676 47.9691 9.364V13H46.8771V6.424H47.9691V7.36C48.1851 7.024 48.4771 6.764 48.8451 6.58C49.2211 6.396 49.6331 6.304 50.0811 6.304ZM57.0009 11.992L59.0409 6.424H60.2049L57.6249 13H56.3529L53.7729 6.424H54.9489L57.0009 11.992ZM67.2795 9.46C67.2795 9.668 67.2675 9.888 67.2435 10.12H61.9875C62.0275 10.768 62.2475 11.276 62.6475 11.644C63.0555 12.004 63.5475 12.184 64.1235 12.184C64.5955 12.184 64.9875 12.076 65.2995 11.86C65.6195 11.636 65.8435 11.34 65.9715 10.972H67.1475C66.9715 11.604 66.6195 12.12 66.0915 12.52C65.5635 12.912 64.9075 13.108 64.1235 13.108C63.4995 13.108 62.9395 12.968 62.4435 12.688C61.9555 12.408 61.5715 12.012 61.2915 11.5C61.0115 10.98 60.8715 10.38 60.8715 9.7C60.8715 9.02 61.0075 8.424 61.2795 7.912C61.5515 7.4 61.9315 7.008 62.4195 6.736C62.9155 6.456 63.4835 6.316 64.1235 6.316C64.7475 6.316 65.2995 6.452 65.7795 6.724C66.2595 6.996 66.6275 7.372 66.8835 7.852C67.1475 8.324 67.2795 8.86 67.2795 9.46ZM66.1515 9.232C66.1515 8.816 66.0595 8.46 65.8755 8.164C65.6915 7.86 65.4395 7.632 65.1195 7.48C64.8075 7.32 64.4595 7.24 64.0755 7.24C63.5235 7.24 63.0515 7.416 62.6595 7.768C62.2755 8.12 62.0555 8.608 61.9995 9.232H66.1515ZM71.9249 6.304C72.7249 6.304 73.3729 6.548 73.8689 7.036C74.3649 7.516 74.6129 8.212 74.6129 9.124V13H73.5329V9.28C73.5329 8.624 73.3689 8.124 73.0409 7.78C72.7129 7.428 72.2649 7.252 71.6969 7.252C71.1209 7.252 70.6609 7.432 70.3169 7.792C69.9809 8.152 69.8129 8.676 69.8129 9.364V13H68.7209V6.424H69.8129V7.36C70.0289 7.024 70.3209 6.764 70.6889 6.58C71.0649 6.396 71.4769 6.304 71.9249 6.304ZM77.7287 7.324V11.2C77.7287 11.52 77.7967 11.748 77.9327 11.884C78.0687 12.012 78.3047 12.076 78.6407 12.076H79.4447V13H78.4607C77.8527 13 77.3967 12.86 77.0927 12.58C76.7887 12.3 76.6367 11.84 76.6367 11.2V7.324H75.7847V6.424H76.6367V4.768H77.7287V6.424H79.4447V7.324H77.7287ZM83.6358 13.108C83.0198 13.108 82.4598 12.968 81.9558 12.688C81.4598 12.408 81.0678 12.012 80.7798 11.5C80.4998 10.98 80.3598 10.38 80.3598 9.7C80.3598 9.028 80.5038 8.436 80.7918 7.924C81.0878 7.404 81.4878 7.008 81.9918 6.736C82.4958 6.456 83.0598 6.316 83.6838 6.316C84.3078 6.316 84.8718 6.456 85.3758 6.736C85.8798 7.008 86.2758 7.4 86.5638 7.912C86.8598 8.424 87.0078 9.02 87.0078 9.7C87.0078 10.38 86.8558 10.98 86.5518 11.5C86.2558 12.012 85.8518 12.408 85.3398 12.688C84.8278 12.968 84.2598 13.108 83.6358 13.108ZM83.6358 12.148C84.0278 12.148 84.3958 12.056 84.7398 11.872C85.0838 11.688 85.3598 11.412 85.5678 11.044C85.7838 10.676 85.8918 10.228 85.8918 9.7C85.8918 9.172 85.7878 8.724 85.5798 8.356C85.3718 7.988 85.0998 7.716 84.7638 7.54C84.4278 7.356 84.0638 7.264 83.6718 7.264C83.2718 7.264 82.9038 7.356 82.5678 7.54C82.2398 7.716 81.9758 7.988 81.7758 8.356C81.5758 8.724 81.4758 9.172 81.4758 9.7C81.4758 10.236 81.5718 10.688 81.7638 11.056C81.9638 11.424 82.2278 11.7 82.5558 11.884C82.8838 12.06 83.2438 12.148 83.6358 12.148ZM89.5355 7.492C89.7275 7.116 89.9995 6.824 90.3515 6.616C90.7115 6.408 91.1475 6.304 91.6595 6.304V7.432H91.3715C90.1475 7.432 89.5355 8.096 89.5355 9.424V13H88.4435V6.424H89.5355V7.492ZM98.5841 6.424L94.6241 16.096H93.4961L94.7921 12.928L92.1401 6.424H93.3521L95.4161 11.752L97.4561 6.424H98.5841Z" fill="black"/>
<path d="M51.408 17.696V26H50.316V19.808L47.556 26H46.788L44.016 19.796V26H42.924V17.696H44.1L47.172 24.56L50.244 17.696H51.408ZM52.8519 22.688C52.8519 22.016 52.9879 21.428 53.2599 20.924C53.5319 20.412 53.9039 20.016 54.3759 19.736C54.8559 19.456 55.3879 19.316 55.9719 19.316C56.5479 19.316 57.0479 19.44 57.4719 19.688C57.8959 19.936 58.2119 20.248 58.4199 20.624V19.424H59.5239V26H58.4199V24.776C58.2039 25.16 57.8799 25.48 57.4479 25.736C57.0239 25.984 56.5279 26.108 55.9599 26.108C55.3759 26.108 54.8479 25.964 54.3759 25.676C53.9039 25.388 53.5319 24.984 53.2599 24.464C52.9879 23.944 52.8519 23.352 52.8519 22.688ZM58.4199 22.7C58.4199 22.204 58.3199 21.772 58.1199 21.404C57.9199 21.036 57.6479 20.756 57.3039 20.564C56.9679 20.364 56.5959 20.264 56.1879 20.264C55.7799 20.264 55.4079 20.36 55.0719 20.552C54.7359 20.744 54.4679 21.024 54.2679 21.392C54.0679 21.76 53.9679 22.192 53.9679 22.688C53.9679 23.192 54.0679 23.632 54.2679 24.008C54.4679 24.376 54.7359 24.66 55.0719 24.86C55.4079 25.052 55.7799 25.148 56.1879 25.148C56.5959 25.148 56.9679 25.052 57.3039 24.86C57.6479 24.66 57.9199 24.376 58.1199 24.008C58.3199 23.632 58.4199 23.196 58.4199 22.7ZM64.5733 19.304C65.3733 19.304 66.0213 19.548 66.5173 20.036C67.0133 20.516 67.2613 21.212 67.2613 22.124V26H66.1813V22.28C66.1813 21.624 66.0173 21.124 65.6893 20.78C65.3613 20.428 64.9133 20.252 64.3453 20.252C63.7693 20.252 63.3093 20.432 62.9653 20.792C62.6293 21.152 62.4613 21.676 62.4613 22.364V26H61.3693V19.424H62.4613V20.36C62.6773 20.024 62.9693 19.764 63.3373 19.58C63.7133 19.396 64.1253 19.304 64.5733 19.304ZM68.6371 22.688C68.6371 22.016 68.7731 21.428 69.0451 20.924C69.3171 20.412 69.6891 20.016 70.1611 19.736C70.6411 19.456 71.1731 19.316 71.7571 19.316C72.3331 19.316 72.8331 19.44 73.2571 19.688C73.6811 19.936 73.9971 20.248 74.2051 20.624V19.424H75.3091V26H74.2051V24.776C73.9891 25.16 73.6651 25.48 73.2331 25.736C72.8091 25.984 72.3131 26.108 71.7451 26.108C71.1611 26.108 70.6331 25.964 70.1611 25.676C69.6891 25.388 69.3171 24.984 69.0451 24.464C68.7731 23.944 68.6371 23.352 68.6371 22.688ZM74.2051 22.7C74.2051 22.204 74.1051 21.772 73.9051 21.404C73.7051 21.036 73.4331 20.756 73.0891 20.564C72.7531 20.364 72.3811 20.264 71.9731 20.264C71.5651 20.264 71.1931 20.36 70.8571 20.552C70.5211 20.744 70.2531 21.024 70.0531 21.392C69.8531 21.76 69.7531 22.192 69.7531 22.688C69.7531 23.192 69.8531 23.632 70.0531 24.008C70.2531 24.376 70.5211 24.66 70.8571 24.86C71.1931 25.052 71.5651 25.148 71.9731 25.148C72.3811 25.148 72.7531 25.052 73.0891 24.86C73.4331 24.66 73.7051 24.376 73.9051 24.008C74.1051 23.632 74.2051 23.196 74.2051 22.7ZM79.8665 19.316C80.4345 19.316 80.9305 19.44 81.3545 19.688C81.7865 19.936 82.1065 20.248 82.3145 20.624V19.424H83.4185V26.144C83.4185 26.744 83.2905 27.276 83.0345 27.74C82.7785 28.212 82.4105 28.58 81.9305 28.844C81.4585 29.108 80.9065 29.24 80.2745 29.24C79.4105 29.24 78.6905 29.036 78.1145 28.628C77.5385 28.22 77.1985 27.664 77.0945 26.96H78.1745C78.2945 27.36 78.5425 27.68 78.9185 27.92C79.2945 28.168 79.7465 28.292 80.2745 28.292C80.8745 28.292 81.3625 28.104 81.7385 27.728C82.1225 27.352 82.3145 26.824 82.3145 26.144V24.764C82.0985 25.148 81.7785 25.468 81.3545 25.724C80.9305 25.98 80.4345 26.108 79.8665 26.108C79.2825 26.108 78.7505 25.964 78.2705 25.676C77.7985 25.388 77.4265 24.984 77.1545 24.464C76.8825 23.944 76.7465 23.352 76.7465 22.688C76.7465 22.016 76.8825 21.428 77.1545 20.924C77.4265 20.412 77.7985 20.016 78.2705 19.736C78.7505 19.456 79.2825 19.316 79.8665 19.316ZM82.3145 22.7C82.3145 22.204 82.2145 21.772 82.0145 21.404C81.8145 21.036 81.5425 20.756 81.1985 20.564C80.8625 20.364 80.4905 20.264 80.0825 20.264C79.6745 20.264 79.3025 20.36 78.9665 20.552C78.6305 20.744 78.3625 21.024 78.1625 21.392C77.9625 21.76 77.8625 22.192 77.8625 22.688C77.8625 23.192 77.9625 23.632 78.1625 24.008C78.3625 24.376 78.6305 24.66 78.9665 24.86C79.3025 25.052 79.6745 25.148 80.0825 25.148C80.4905 25.148 80.8625 25.052 81.1985 24.86C81.5425 24.66 81.8145 24.376 82.0145 24.008C82.2145 23.632 82.3145 23.196 82.3145 22.7ZM91.2638 22.46C91.2638 22.668 91.2518 22.888 91.2278 23.12H85.9718C86.0118 23.768 86.2318 24.276 86.6318 24.644C87.0398 25.004 87.5318 25.184 88.1078 25.184C88.5798 25.184 88.9718 25.076 89.2838 24.86C89.6038 24.636 89.8278 24.34 89.9558 23.972H91.1318C90.9558 24.604 90.6038 25.12 90.0758 25.52C89.5478 25.912 88.8918 26.108 88.1078 26.108C87.4838 26.108 86.9238 25.968 86.4278 25.688C85.9398 25.408 85.5558 25.012 85.2758 24.5C84.9958 23.98 84.8558 23.38 84.8558 22.7C84.8558 22.02 84.9918 21.424 85.2638 20.912C85.5358 20.4 85.9158 20.008 86.4038 19.736C86.8998 19.456 87.4678 19.316 88.1078 19.316C88.7318 19.316 89.2838 19.452 89.7638 19.724C90.2438 19.996 90.6118 20.372 90.8678 20.852C91.1318 21.324 91.2638 21.86 91.2638 22.46ZM90.1358 22.232C90.1358 21.816 90.0438 21.46 89.8598 21.164C89.6758 20.86 89.4238 20.632 89.1038 20.48C88.7918 20.32 88.4438 20.24 88.0598 20.24C87.5078 20.24 87.0358 20.416 86.6438 20.768C86.2598 21.12 86.0398 21.608 85.9838 22.232H90.1358ZM100.613 19.304C101.125 19.304 101.581 19.412 101.981 19.628C102.381 19.836 102.697 20.152 102.929 20.576C103.161 21 103.277 21.516 103.277 22.124V26H102.197V22.28C102.197 21.624 102.033 21.124 101.705 20.78C101.385 20.428 100.949 20.252 100.397 20.252C99.8293 20.252 99.3773 20.436 99.0413 20.804C98.7053 21.164 98.5373 21.688 98.5373 22.376V26H97.4573V22.28C97.4573 21.624 97.2933 21.124 96.9653 20.78C96.6453 20.428 96.2093 20.252 95.6573 20.252C95.0893 20.252 94.6373 20.436 94.3013 20.804C93.9653 21.164 93.7973 21.688 93.7973 22.376V26H92.7053V19.424H93.7973V20.372C94.0133 20.028 94.3013 19.764 94.6613 19.58C95.0293 19.396 95.4333 19.304 95.8733 19.304C96.4253 19.304 96.9133 19.428 97.3373 19.676C97.7613 19.924 98.0773 20.288 98.2853 20.768C98.4693 20.304 98.7733 19.944 99.1973 19.688C99.6213 19.432 100.093 19.304 100.613 19.304ZM111.069 22.46C111.069 22.668 111.057 22.888 111.033 23.12H105.777C105.817 23.768 106.037 24.276 106.437 24.644C106.845 25.004 107.337 25.184 107.913 25.184C108.385 25.184 108.777 25.076 109.089 24.86C109.409 24.636 109.633 24.34 109.761 23.972H110.937C110.761 24.604 110.409 25.12 109.881 25.52C109.353 25.912 108.697 26.108 107.913 26.108C107.289 26.108 106.729 25.968 106.233 25.688C105.745 25.408 105.361 25.012 105.081 24.5C104.801 23.98 104.661 23.38 104.661 22.7C104.661 22.02 104.797 21.424 105.069 20.912C105.341 20.4 105.721 20.008 106.209 19.736C106.705 19.456 107.273 19.316 107.913 19.316C108.537 19.316 109.089 19.452 109.569 19.724C110.049 19.996 110.417 20.372 110.673 20.852C110.937 21.324 111.069 21.86 111.069 22.46ZM109.941 22.232C109.941 21.816 109.849 21.46 109.665 21.164C109.481 20.86 109.229 20.632 108.909 20.48C108.597 20.32 108.249 20.24 107.865 20.24C107.313 20.24 106.841 20.416 106.449 20.768C106.065 21.12 105.845 21.608 105.789 22.232H109.941ZM115.714 19.304C116.514 19.304 117.162 19.548 117.658 20.036C118.154 20.516 118.402 21.212 118.402 22.124V26H117.322V22.28C117.322 21.624 117.158 21.124 116.83 20.78C116.502 20.428 116.054 20.252 115.486 20.252C114.91 20.252 114.45 20.432 114.106 20.792C113.77 21.152 113.602 21.676 113.602 22.364V26H112.51V19.424H113.602V20.36C113.818 20.024 114.11 19.764 114.478 19.58C114.854 19.396 115.266 19.304 115.714 19.304ZM121.518 20.324V24.2C121.518 24.52 121.586 24.748 121.722 24.884C121.858 25.012 122.094 25.076 122.43 25.076H123.234V26H122.25C121.642 26 121.186 25.86 120.882 25.58C120.578 25.3 120.426 24.84 120.426 24.2V20.324H119.574V19.424H120.426V17.768H121.518V19.424H123.234V20.324H121.518Z" fill="black"/>
<path d="M46.576 39.084C46.024 39.084 45.528 38.988 45.088 38.796C44.656 38.596 44.316 38.324 44.068 37.98C43.82 37.628 43.692 37.224 43.684 36.768H44.848C44.888 37.16 45.048 37.492 45.328 37.764C45.616 38.028 46.032 38.16 46.576 38.16C47.096 38.16 47.504 38.032 47.8 37.776C48.104 37.512 48.256 37.176 48.256 36.768C48.256 36.448 48.168 36.188 47.992 35.988C47.816 35.788 47.596 35.636 47.332 35.532C47.068 35.428 46.712 35.316 46.264 35.196C45.712 35.052 45.268 34.908 44.932 34.764C44.604 34.62 44.32 34.396 44.08 34.092C43.848 33.78 43.732 33.364 43.732 32.844C43.732 32.388 43.848 31.984 44.08 31.632C44.312 31.28 44.636 31.008 45.052 30.816C45.476 30.624 45.96 30.528 46.504 30.528C47.288 30.528 47.928 30.724 48.424 31.116C48.928 31.508 49.212 32.028 49.276 32.676H48.076C48.036 32.356 47.868 32.076 47.572 31.836C47.276 31.588 46.884 31.464 46.396 31.464C45.94 31.464 45.568 31.584 45.28 31.824C44.992 32.056 44.848 32.384 44.848 32.808C44.848 33.112 44.932 33.36 45.1 33.552C45.276 33.744 45.488 33.892 45.736 33.996C45.992 34.092 46.348 34.204 46.804 34.332C47.356 34.484 47.8 34.636 48.136 34.788C48.472 34.932 48.76 35.16 49 35.472C49.24 35.776 49.36 36.192 49.36 36.72C49.36 37.128 49.252 37.512 49.036 37.872C48.82 38.232 48.5 38.524 48.076 38.748C47.652 38.972 47.152 39.084 46.576 39.084ZM56.631 32.424L52.671 42.096H51.543L52.839 38.928L50.187 32.424H51.399L53.463 37.752L55.503 32.424H56.631ZM60.0567 39.108C59.5527 39.108 59.1007 39.024 58.7007 38.856C58.3007 38.68 57.9847 38.44 57.7527 38.136C57.5207 37.824 57.3927 37.468 57.3687 37.068H58.4967C58.5287 37.396 58.6807 37.664 58.9527 37.872C59.2327 38.08 59.5967 38.184 60.0447 38.184C60.4607 38.184 60.7887 38.092 61.0287 37.908C61.2687 37.724 61.3887 37.492 61.3887 37.212C61.3887 36.924 61.2607 36.712 61.0047 36.576C60.7487 36.432 60.3527 36.292 59.8167 36.156C59.3287 36.028 58.9287 35.9 58.6167 35.772C58.3127 35.636 58.0487 35.44 57.8247 35.184C57.6087 34.92 57.5007 34.576 57.5007 34.152C57.5007 33.816 57.6007 33.508 57.8007 33.228C58.0007 32.948 58.2847 32.728 58.6527 32.568C59.0207 32.4 59.4407 32.316 59.9127 32.316C60.6407 32.316 61.2287 32.5 61.6767 32.868C62.1247 33.236 62.3647 33.74 62.3967 34.38H61.3047C61.2807 34.036 61.1407 33.76 60.8847 33.552C60.6367 33.344 60.3007 33.24 59.8767 33.24C59.4847 33.24 59.1727 33.324 58.9407 33.492C58.7087 33.66 58.5927 33.88 58.5927 34.152C58.5927 34.368 58.6607 34.548 58.7967 34.692C58.9407 34.828 59.1167 34.94 59.3247 35.028C59.5407 35.108 59.8367 35.2 60.2127 35.304C60.6847 35.432 61.0687 35.56 61.3647 35.688C61.6607 35.808 61.9127 35.992 62.1207 36.24C62.3367 36.488 62.4487 36.812 62.4567 37.212C62.4567 37.572 62.3567 37.896 62.1567 38.184C61.9567 38.472 61.6727 38.7 61.3047 38.868C60.9447 39.028 60.5287 39.108 60.0567 39.108ZM65.3302 33.324V37.2C65.3302 37.52 65.3982 37.748 65.5342 37.884C65.6702 38.012 65.9062 38.076 66.2422 38.076H67.0462V39H66.0622C65.4542 39 64.9982 38.86 64.6942 38.58C64.3902 38.3 64.2382 37.84 64.2382 37.2V33.324H63.3862V32.424H64.2382V30.768H65.3302V32.424H67.0462V33.324H65.3302ZM74.3693 35.46C74.3693 35.668 74.3573 35.888 74.3333 36.12H69.0773C69.1173 36.768 69.3373 37.276 69.7373 37.644C70.1453 38.004 70.6373 38.184 71.2133 38.184C71.6853 38.184 72.0773 38.076 72.3893 37.86C72.7093 37.636 72.9333 37.34 73.0613 36.972H74.2373C74.0613 37.604 73.7093 38.12 73.1813 38.52C72.6533 38.912 71.9973 39.108 71.2133 39.108C70.5893 39.108 70.0293 38.968 69.5333 38.688C69.0453 38.408 68.6613 38.012 68.3813 37.5C68.1013 36.98 67.9613 36.38 67.9613 35.7C67.9613 35.02 68.0973 34.424 68.3693 33.912C68.6413 33.4 69.0213 33.008 69.5093 32.736C70.0053 32.456 70.5733 32.316 71.2133 32.316C71.8373 32.316 72.3893 32.452 72.8693 32.724C73.3493 32.996 73.7173 33.372 73.9733 33.852C74.2373 34.324 74.3693 34.86 74.3693 35.46ZM73.2413 35.232C73.2413 34.816 73.1493 34.46 72.9653 34.164C72.7813 33.86 72.5293 33.632 72.2093 33.48C71.8973 33.32 71.5493 33.24 71.1653 33.24C70.6133 33.24 70.1413 33.416 69.7493 33.768C69.3653 34.12 69.1453 34.608 69.0893 35.232H73.2413ZM83.7187 32.304C84.2307 32.304 84.6867 32.412 85.0867 32.628C85.4867 32.836 85.8027 33.152 86.0347 33.576C86.2667 34 86.3827 34.516 86.3827 35.124V39H85.3027V35.28C85.3027 34.624 85.1387 34.124 84.8107 33.78C84.4907 33.428 84.0547 33.252 83.5027 33.252C82.9347 33.252 82.4827 33.436 82.1467 33.804C81.8107 34.164 81.6427 34.688 81.6427 35.376V39H80.5627V35.28C80.5627 34.624 80.3987 34.124 80.0707 33.78C79.7507 33.428 79.3147 33.252 78.7627 33.252C78.1947 33.252 77.7427 33.436 77.4067 33.804C77.0707 34.164 76.9027 34.688 76.9027 35.376V39H75.8107V32.424H76.9027V33.372C77.1187 33.028 77.4067 32.764 77.7667 32.58C78.1347 32.396 78.5387 32.304 78.9787 32.304C79.5307 32.304 80.0187 32.428 80.4427 32.676C80.8667 32.924 81.1827 33.288 81.3907 33.768C81.5747 33.304 81.8787 32.944 82.3027 32.688C82.7267 32.432 83.1987 32.304 83.7187 32.304Z" fill="black"/>
<defs>
<linearGradient id="paint0_linear_103_21" x1="21" y1="6" x2="21" y2="39" gradientUnits="userSpaceOnUse">
<stop offset="0.0893242" stop-color="#4E50FB"/>
<stop offset="1" stop-color="#91B3FA" stop-opacity="0.5"/>
</linearGradient>
</defs>
</svg>
