<svg width="42" height="33" viewBox="0 0 42 33" fill="none" xmlns="http://www.w3.org/2000/svg">
<path d="M14.9823 13.5885L21.0001 2.36289L4.57875 0.0107525C4.12791 -0.0534569 3.69085 0.205595 3.49397 0.66687L0.11527 8.25245C-0.188246 8.93882 0.133907 9.75067 0.773816 9.94994L13.7085 14.1221C14.2276 14.2749 14.7263 14.0534 14.9823 13.5885ZM41.8885 8.25245L38.5095 0.665394C38.3126 0.204119 37.8692 -0.0547855 37.4181 0.00979305L21.0001 2.36289L27.0205 13.5885C27.2667 14.0498 27.7673 14.272 28.2352 14.1244L41.2224 9.9537C41.8688 9.74329 42.1838 8.93144 41.8885 8.25245ZM27.9432 16.6292C26.8276 16.6292 25.7855 15.9687 25.2198 14.914L21.0001 7.08634L16.787 14.9096C16.216 15.9723 15.1792 16.6366 14.0635 16.6366C13.7682 16.6366 13.4729 16.5907 13.194 16.4991L4.2001 13.618V26.6149C4.2001 27.6976 4.85628 28.6334 5.7915 28.8903L19.9731 32.8624C20.6457 33.0459 21.3433 33.0459 22.0074 32.8624L36.2087 28.8903C37.0848 28.6888 37.8001 27.7515 37.8001 26.6813V13.618L28.8095 16.489C28.5338 16.5775 28.2385 16.6292 27.9432 16.6292Z" fill="url(#paint0_linear_103_24)"/>
<defs>
<linearGradient id="paint0_linear_103_24" x1="21" y1="0" x2="21" y2="33" gradientUnits="userSpaceOnUse">
<stop offset="0.0893242" stop-color="#4E50FB"/>
<stop offset="1" stop-color="#91B3FA" stop-opacity="0.5"/>
</linearGradient>
</defs>
</svg>
